# AST/ASF file generated using VICON BodyLanguage
# -----------------------------------------------
:version 1.10
:name VICON
:units
  mass 1.0
  length 0.45
  angle deg
:documentation
   .ast/.asf automatically generated from VICON data using
   VICON BodyBuilder and BodyLanguage model FoxedUp or BRILLIANT.MOD
:root
   order TX TY TZ RX RY RZ
   axis XYZ
   position 0 0 0  
   orientation 0 0 0 
:bonedata
  begin
     id 1 
     name lhipjoint
     direction 0.707368 -0.647095 0.284426 
     length 2.60678 
     axis 0 0 0  XYZ
  end
  begin
     id 2 
     name lfemur
     direction 0.34202 -0.939693 0  
     length 6.63812  
     axis 0 0 20  XYZ
    dof rx ry rz
    limits (-160.0 20.0)
           (-70.0 70.0)
           (-60.0 70.0)
  end
  begin
     id 3 
     name ltibia
     direction 0.34202 -0.939693 0   
     length 7.51178   
     axis 0 0 20   XYZ
    dof rx
    limits (-10.0 170.0)
  end
  begin
     id 4 
     name lfoot
     direction 0.121251 -0.333133 0.935051   
     length 1.83716   
     axis -90 7.62852e-016 20   XYZ
    dof rx rz
    limits (-45.0 90.0)
           (-70.0 20.0)
  end
  begin
     id 5 
     name ltoes
     direction 1.53611e-011 -4.21962e-011 1   
     length 0.916133   
     axis -90 7.62852e-016 20   XYZ
    dof rx
    limits (-90.0 20.0)
  end
  begin
     id 6 
     name rhipjoint
     direction -0.692419 -0.660507 0.290321   
     length 2.55385  
     axis 0 0 0  XYZ 
  end
  begin
     id 7 
     name rfemur
     direction -0.34202 -0.939693 0   
     length 7.29079   
     axis 0 0 -20   XYZ
    dof rx ry rz
    limits (-160.0 20.0)
           (-70.0 70.0)
           (-70.0 60.0)
  end
  begin
     id 8 
     name rtibia
     direction -0.34202 -0.939693 0   
     length 7.47143   
     axis 0 0 -20   XYZ
    dof rx
    limits (-10.0 170.0)
 end
 begin
     id 9 
     name rfoot
     direction -0.119907 -0.329441 0.936532   
     length 1.79439  
     axis -90 -7.62852e-016 -20   XYZ
    dof rx rz
    limits (-45.0 90.0)
           (-20.0 70.0)
  end
  begin
     id 10 
     name rtoes
     direction -1.53571e-011 -4.21961e-011 1   
     length 0.896039   
     axis -90 -7.62852e-016 -20   XYZ
    dof rx
    limits (-90.0 20.0)
  end
  begin
     id 11 
     name lowerback
     direction 0.0367721 0.992912 -0.113016   
     length 1.73542   
     axis 0 0 0   XYZ
    dof rx ry rz
    limits (-20.0 45.0)
           (-30.0 30.0)
           (-30.0 30.0)
  end
  begin
     id 12 
     name upperback
     direction -0.000314626 0.990678 0.136227   
     length 1.7514   
     axis 0 0 0   XYZ
    dof rx ry rz
    limits (-20.0 45.0)
           (-30.0 30.0)
           (-30.0 30.0)
  end
  begin
     id 13 
     name thorax
     direction -0.0226159 0.981151 0.191917   
     length 1.71471   
     axis 0 0 0   XYZ
    dof rx ry rz
    limits (-20.0 45.0)
           (-30.0 30.0)
           (-30.0 30.0)
  end
  begin
     id 14 
     name lowerneck
     direction 0.0219333 0.998071 0.0580739   
     length 1.65882   
     axis 0 0 0   XYZ
    dof rx ry rz
    limits (-20.0 45.0)
           (-30.0 30.0)
           (-30.0 30.0)
  end
  begin
     id 15 
     name upperneck
     direction 0.0384529 0.980058 -0.194957   
     length 1.6612   
     axis 0 0 0   XYZ
    dof rx ry rz
    limits (-20.0 45.0)
           (-30.0 30.0)
           (-30.0 30.0)
  end
  begin
     id 16
     name head
     direction 0.00592123 0.997421 -0.0715234  
     length 1.68077  
     axis 0 0 0   XYZ
    dof rx ry rz
    limits (-20.0 45.0)
           (-30.0 30.0)
           (-30.0 30.0)
  end
  begin
     id 17 
     name lclavicle
     direction 0.904803 0.417826 0.0821728  
     length 3.42227  
     axis 0 0 0   XYZ
    dof ry rz
    limits (-20.0 10.0)
           (0.0 20.0)
  end
  begin
     id 18 
     name lhumerus
     direction 1 -4.48965e-011 -2.68786e-027   
     length 5.11878   
     axis -180 -30 -90   XYZ
    dof rx ry rz
    limits (-60.0 90.0)
           (-90.0 90.0)
           (-90.0 90.0)
  end
  begin
     id 19
     name lradius
     direction 1 -4.48965e-011 2.61168e-028   
     length 3.59971   
     axis -180 -30 -90   XYZ
    dof rx
    limits (-10.0 170.0)
  end
  begin
     id 20
     name lwrist
     direction 1 -4.48965e-011 1.58672e-027   
     length 1.79985   
     axis -1.65735e-015 90 90   XYZ
    dof ry
    limits (-180.0 0.0)
 end
  begin
     id 21 
     name lhand
     direction 1 -4.48942e-011 3.17344e-027   
     length 0.62877   
     axis -2.02492e-015 90 90   XYZ
    dof rx rz
    limits (-90.0 90.0)
           (-45.0 45.0)
  end
  begin
     id 22 
     name lfingers
     direction 1 -4.49011e-011 6.34687e-027   
     length 0.506931   
     axis -4.04985e-015 90 90   XYZ
    dof rx
    limits (0.0 90.0)
  end
  begin
     id 23
     name lthumb
     direction 0.707107 -6.34982e-011 0.707107   
     length 0.727854   
     axis -90 45 2.85299e-015   XYZ
    dof rx rz
    limits (-45.0 45.0)
           (-45.0 45.0)
  end
  begin
     id 24 
     name rclavicle
     direction -0.945647 0.32488 0.0143075   
     length 3.52737  
     axis 0 0 0   XYZ 
    dof ry rz
    limits (-10.0 20.0)
           (-20.0 0.0)
  end
  begin
     id 25 
     name rhumerus
     direction -1 -4.48962e-011 1.92182e-027  
     length 5.4902   
     axis -180 30 90   XYZ
    dof rx ry rz
    limits (-90.0 60.0)
           (-90.0 90.0)
           (-90.0 90.0)
  end
  begin
     id 26 
     name rradius
     direction -1 -4.48967e-011 -5.97193e-028   
     length 3.20659   
     axis -180 30 90   XYZ
    dof rx
    limits (-10.0 170.0)
  end
  begin
     id 27 
     name rwrist
     direction -1 -4.48964e-011 1.58672e-027   
     length 1.6033   
     axis -1.65735e-015 -90 -90   XYZ
    dof ry
    limits (-180.0 0.0)
  end
  begin
     id 28
     name rhand
     direction -1 -4.49006e-011 3.17344e-027   
     length 0.691885   
     axis -2.02492e-015 -90 -90   XYZ
    dof rx rz
    limits (-90.0 90.0)
           (-45.0 45.0)
  end
  begin
     id 29
     name rfingers
     direction -1 -4.48908e-011 6.34687e-027   
     length 0.557815   
     axis -4.04985e-015 -90 -90   XYZ
    dof rx
    limits (0.0 90.0)
  end
  begin
     id 30
     name rthumb
     direction -0.707107 -6.34999e-011 0.707107   
     length 0.800915   
     axis -90 -45 -2.85299e-015   XYZ
    dof rx rz
    limits (-45.0 45.0)
           (-45.0 45.0)
  end
:hierarchy
  begin
    root lhipjoint rhipjoint lowerback
    lhipjoint lfemur
    lfemur ltibia
    ltibia lfoot
    lfoot ltoes
    rhipjoint rfemur
    rfemur rtibia
    rtibia rfoot
    rfoot rtoes
    lowerback upperback
    upperback thorax
    thorax lowerneck lclavicle rclavicle
    lowerneck upperneck
    upperneck head
    lclavicle lhumerus
    lhumerus lradius
    lradius lwrist
    lwrist lhand lthumb
    lhand lfingers
    rclavicle rhumerus
    rhumerus rradius
    rradius rwrist
    rwrist rhand rthumb
    rhand rfingers
  end

#!OML:ASF I:\Actors\actors\Patient Classification 1\Patient 1\Session 1\Subject1.ASF
:FULLY-SPECIFIED
:DEGREES
1
root 0.602637 17.4376 9.21249 10.4867 -2.91288 -8.92656
lowerback 2.04684 2.05653 7.07519
upperback -8.60203 3.3379 0.411776
thorax -9.96281 1.08088 -3.85221
lowerneck -7.33186 -5.47352 0.655703
upperneck 11.0051 -8.48543 8.08644
head 4.84414 -3.66333 1.83508
rclavicle -2.38542e-015 7.15625e-015
rhumerus -48.3369 -21.6634 -72.4318
rradius 32.2374
rwrist 19.2182
rhand 22.4981 -39.9476
rfingers 7.12502
rthumb 46.8548 -62.6775
lclavicle -2.38542e-015 7.15625e-015
lhumerus -44.8332 12.9166 75.1958
lradius 26.4641
lwrist -13.1672
lhand -17.5227 -2.90841
lfingers 7.12502
lthumb 8.73098 26.891
rfemur -6.85903 23.8576 24.5366
rtibia 3.03746
rfoot -10.4026 -21.7915
rtoes -2.20024
lfemur 3.68744 -44.17 -10.9382
ltibia -4.24881
lfoot -22.4639 52.9404
ltoes 11.3499
2
root 0.608095 17.4258 9.21117 10.1036 -2.65542 -10.1924
lowerback 2.51527 2.08738 8.64837
upperback -8.61633 3.58105 0.79704
thorax -10.2036 1.07794 -4.35781
lowerneck -7.30358 -5.61269 -0.539988
upperneck 11.7551 -8.69236 8.75871
head 5.15817 -3.74591 2.20949
rclavicle 1.78906e-014 1.35174e-014
rhumerus -48.7223 -21.6091 -71.9557
rradius 32.3216
rwrist 19.1572
rhand 22.5974 -40.0693
rfingers 7.12502
rthumb 46.9467 -62.7589
lclavicle 1.78906e-014 1.35174e-014
lhumerus -45.0574 12.9265 75.3595
lradius 26.4428
lwrist -14.1046
lhand -17.1599 -2.59393
lfingers 7.12502
lthumb 9.08109 27.1906
rfemur -6.22281 23.5281 26.3082
rtibia 3.01499
rfoot -10.4012 -21.4956
rtoes -1.58949
lfemur 4.32249 -43.3601 -9.73432
ltibia -4.63089
lfoot -20.7864 52.4105
ltoes 9.43959
3
root 0.61495 17.4199 9.20969 9.95138 -2.50871 -10.803
lowerback 2.71161 2.20016 9.56292
upperback -8.70519 3.85194 0.972058
thorax -10.367 1.13189 -4.71353
lowerneck -7.49777 -5.77352 -2.50915
upperneck 12.8368 -9.01767 10.3939
head 5.70561 -3.84221 2.99522
rclavicle 2.64384e-014 0
rhumerus -49.1232 -21.6486 -71.4323
rradius 32.3525
rwrist 19.0339
rhand 22.4027 -40.3626
rfingers 7.12502
rthumb 46.7665 -63.131
lclavicle 2.64384e-014 0
lhumerus -45.2304 12.7817 75.6356
lradius 26.3471
lwrist -14.632
lhand -17.0928 -2.51094
lfingers 7.12502
lthumb 9.14578 27.2707
rfemur -5.85728 23.7301 27.163
rtibia 2.89283
rfoot -10.4274 -21.7259
rtoes -0.0187996
lfemur 4.55729 -43.0374 -9.13558
ltibia -4.75935
lfoot -20.2366 52.1291
ltoes 8.82123
4
root 0.616001 17.42 9.21242 9.93824 -2.55228 -10.7791
lowerback 2.63648 2.14722 9.50912
upperback -8.73769 3.77388 1.02819
thorax -10.3763 1.09974 -4.61231
lowerneck -7.80781 -5.75804 -3.31256
upperneck 13.7645 -9.10956 11.1347
head 6.12694 -3.83169 3.3414
rclavicle 8.94531e-016 -1.43125e-014
rhumerus -49.1091 -21.4166 -71.4502
rradius 32.2483
rwrist 19.1052
rhand 22.0437 -40.5033
rfingers 7.12502
rthumb 46.434 -63.4149
lclavicle 8.94531e-016 -1.43125e-014
lhumerus -45.4021 13.184 75.4185
lradius 26.2556
lwrist -15.0345
lhand -17.1554 -2.73839
lfingers 7.12502
lthumb 9.0854 27.0459
rfemur -5.60882 24.813 27.2114
rtibia 2.66589
rfoot -10.5015 -22.7334
rtoes 0.426993
lfemur 4.66643 -43.2212 -9.26663
ltibia -4.74876
lfoot -20.6542 52.2486
ltoes 9.32427
5
root 0.616784 17.4199 9.21736 9.87849 -2.64831 -10.6124
lowerback 2.56224 2.11058 9.29633
upperback -8.72658 3.70044 1.06689
thorax -10.3388 1.08597 -4.44167
lowerneck -7.83186 -5.72869 -3.54444
upperneck 14.26 -9.10451 11.2032
head 6.29971 -3.81807 3.40126
rclavicle 4.47266e-015 5.96354e-014
rhumerus -48.8929 -20.9995 -71.5822
rradius 31.9972
rwrist 18.9045
rhand 21.6996 -40.8315
rfingers 7.12502
rthumb 46.115 -63.878
lclavicle 4.47266e-015 5.96354e-014
lhumerus -45.5413 13.6054 75.2842
lradius 26.2124
lwrist -15.2783
lhand -17.2867 -2.72422
lfingers 7.12502
lthumb 8.95869 27.0656
rfemur -5.37175 25.3855 27.081
rtibia 2.45197
rfoot -10.4482 -23.2511
rtoes -0.254911
lfemur 4.92823 -43.5744 -9.69636
ltibia -4.76511
lfoot -21.29 52.5439
ltoes 10.0968
6
root 0.616355 17.4227 9.23894 10.0847 -2.40386 -11.1131
lowerback 1.93811 2.03759 9.82045
upperback -8.7321 3.5838 1.29402
thorax -9.98571 1.01694 -4.44372
lowerneck -7.83466 -5.643 -3.71774
upperneck 14.7125 -9.01211 11.199
head 6.44247 -3.7672 3.43771
rclavicle 1.41634e-014 -1.27222e-014
rhumerus -48.5281 -20.3539 -71.8782
rradius 31.6243
rwrist 18.3313
rhand 21.2626 -41.6063
rfingers 7.12502
rthumb 45.7094 -64.8209
lclavicle 1.41634e-014 -1.27222e-014
lhumerus -45.6892 13.836 75.3297
lradius 26.2772
lwrist -15.098
lhand -17.4792 -2.2289
lfingers 7.12502
lthumb 8.77295 27.5688
rfemur -5.36198 25.0876 27.6702
rtibia 2.22874
rfoot -10.3013 -23.1067
rtoes 0.144865
lfemur 4.75806 -43.5572 -8.92809
ltibia -4.96071
lfoot -21.0204 52.5171
ltoes 9.79147
7
root 0.611931 17.4272 9.25131 10.2165 -2.41602 -10.8956
lowerback 1.54242 1.99983 9.48582
upperback -8.75871 3.46514 1.34187
thorax -9.80744 0.997619 -4.17882
lowerneck -7.90826 -5.5676 -3.84009
upperneck 15.2253 -8.93868 11.1494
head 6.61456 -3.72209 3.44827
rclavicle -1.54058e-014 2.94201e-014
rhumerus -48.3598 -19.9025 -72.0133
rradius 31.4394
rwrist 17.9998
rhand 20.9894 -42.0535
rfingers 7.12502
rthumb 45.4556 -65.3713
lclavicle -1.54058e-014 2.94201e-014
lhumerus -45.8325 13.9863 75.3807
lradius 26.3403
lwrist -14.9915
lhand -17.5946 -1.84622
lfingers 7.12502
lthumb 8.66155 27.9561
rfemur -5.45502 25.1404 27.3696
rtibia 2.15522
rfoot -10.298 -23.1743
rtoes 0.78311
lfemur 4.65437 -43.7794 -9.11819
ltibia -4.96989
lfoot -21.264 52.691
ltoes 9.96333
8
root 0.604848 17.4351 9.25709 10.4023 -2.6 -10.1502
lowerback 1.15593 1.89813 8.48001
upperback -8.82331 3.22211 1.36706
thorax -9.70905 0.964313 -3.56008
lowerneck -7.8007 -5.42157 -4.21035
upperneck 15.5759 -8.73053 11.1844
head 6.70615 -3.63295 3.54486
rclavicle 1.10325e-014 3.93594e-014
rhumerus -48.2492 -19.3194 -72.0231
rradius 31.3816
rwrist 17.9381
rhand 20.9185 -42.0713
rfingers 7.12502
rthumb 45.3898 -65.4157
lclavicle 1.10325e-014 3.93594e-014
lhumerus -46.1262 14.5298 75.3121
lradius 26.4107
lwrist -15.0627
lhand -17.6922 -1.74546
lfingers 7.12502
lthumb 8.56735 28.0607
rfemur -5.74199 25.524 26.3601
rtibia 2.17359
rfoot -10.3777 -23.459
rtoes 0.998888
lfemur 4.41793 -44.2318 -9.89029
ltibia -4.81849
lfoot -22.1351 53.0349
ltoes 10.8788
9
root 0.601373 17.4382 9.25782 10.552 -2.65738 -9.80066
lowerback 0.938684 1.93054 8.04714
upperback -8.8376 3.20899 1.28183
thorax -9.60297 0.993234 -3.40186
lowerneck -7.86351 -5.33851 -4.08803
upperneck 15.6989 -8.62403 11.0693
head 6.73714 -3.57687 3.49652
rclavicle -1.06847e-014 -2.5842e-014
rhumerus -48.239 -19.4118 -71.9371
rradius 31.3081
rwrist 18.1122
rhand 20.7745 -41.8612
rfingers 7.12502
rthumb 45.2559 -65.2593
lclavicle -1.06847e-014 -2.5842e-014
lhumerus -46.0378 14.5475 75.3772
lradius 26.4357
lwrist -15.0557
lhand -17.8396 -1.71063
lfingers 7.12502
lthumb 8.42511 28.1013
rfemur -5.97226 25.7187 25.8464
rtibia 2.20035
rfoot -10.4439 -23.6184
rtoes 1.21808
lfemur 4.12517 -44.3124 -10.1029
ltibia -4.74718
lfoot -22.3185 53.1059
ltoes 11.1512
10
root 0.601778 17.4375 9.25589 10.6013 -2.60566 -9.7879
lowerback 0.884989 1.92734 8.02933
upperback -8.82843 3.1981 1.29049
thorax -9.56276 0.99183 -3.37943
lowerneck -7.97159 -5.26511 -4.05133
upperneck 15.798 -8.54144 11.0971
head 6.78095 -3.52559 3.50534
rclavicle -2.52457e-014 -1.59028e-014
rhumerus -48.2235 -19.4597 -71.8598
rradius 31.1898
rwrist 18.4582
rhand 20.6456 -41.4322
rfingers 7.12502
rthumb 45.136 -64.8779
lclavicle -2.52457e-014 -1.59028e-014
lhumerus -45.9846 14.6171 75.4234
lradius 26.4856
lwrist -15.0397
lhand -17.9457 -1.74437
lfingers 7.12502
lthumb 8.32273 28.0717
rfemur -6.03683 25.7214 25.805
rtibia 2.19378
rfoot -10.4653 -23.685
rtoes 1.26165
lfemur 3.97586 -44.245 -10.0091
ltibia -4.72232
lfoot -22.1257 53.04
ltoes 10.9808
